<svg width="16" height="16" viewBox="0 0 16 16" fill="none" xmlns="http://www.w3.org/2000/svg">
<path fill-rule="evenodd" clip-rule="evenodd" d="M0.833252 7.66671C0.833252 11.4334 3.89992 14.5 7.66659 14.5C11.4333 14.5 14.4999 11.4334 14.4999 7.66671C14.4999 3.90004 11.4333 0.833374 7.66659 0.833374C3.89992 0.833374 0.833252 3.90004 0.833252 7.66671ZM1.83325 7.66671C1.83325 4.45337 4.44659 1.83337 7.66659 1.83337C10.8866 1.83337 13.4999 4.45337 13.4999 7.66671C13.4999 10.88 10.8866 13.5 7.66659 13.5C4.44659 13.5 1.83325 10.88 1.83325 7.66671ZM14.3132 15.02C14.4132 15.12 14.5399 15.1666 14.6666 15.1666C14.7932 15.1666 14.9199 15.12 15.0199 15.02C15.2132 14.8266 15.2132 14.5066 15.0199 14.3133L13.6866 12.98C13.4932 12.7866 13.1732 12.7866 12.9799 12.98C12.7866 13.1733 12.7866 13.4933 12.9799 13.6866L14.3132 15.02Z" fill="#999FA6"/>
</svg>
